# xmcd CD database file
#
# Track frame offsets:
#	150
#	13504
#	25218
#	45033
#	61291
#	82348
#	104078
#	116200
#	131906
#	147275
#	164877
#	180847
#
# Disc length: 2640 seconds
#
# Revision: 0
# Processed by: cddbd v1.5.1PL2 Copyright (c) Steve Scherf et al.
# Submitted via: CDex 1.51
#
DISCID=a80a4e0c
DTITLE=La Misma Cosa Blues Band - The Blues will never die
DYEAR=2003
DGENRE=Blues
TTITLE0=Sugar sweet
TTITLE1=Walking by myself
TTITLE2=It hurts me too
TTITLE3=Chevrolet
TTITLE4=Your love is like a Hurricane
TTITLE5=I idolize you
TTITLE6=Shut up baby
TTITLE7=Next door to the blues
TTITLE8=Im not the one
TTITLE9=Summertime
TTITLE10=Im gonna leave you
TTITLE11=The blues will never die
EXTD=YEAR: 2003
EXTT0=
EXTT1=
EXTT2=
EXTT3=
EXTT4=
EXTT5=
EXTT6=
EXTT7=
EXTT8=
EXTT9=
EXTT10=
EXTT11=
PLAYORDER=
